<?xml version="1.0" standalone="no"?>
<!DOCTYPE svg PUBLIC "-//W3C//DTD SVG 20010904//EN" "http://www.w3.org/TR/2001/REC-SVG-20010904/DTD/svg10.dtd">
<!-- Created using Krita: https://krita.org -->
<svg xmlns="http://www.w3.org/2000/svg" 
    xmlns:xlink="http://www.w3.org/1999/xlink"
    xmlns:krita="http://krita.org/namespaces/svg/krita"
    xmlns:sodipodi="http://sodipodi.sourceforge.net/DTD/sodipodi-0.dtd"
    width="737.28pt"
    height="737.28pt"
    viewBox="0 0 737.28 737.28">
<defs/>
<path id="shape0" transform="matrix(0.99999988079072 0 0 0.99999988079072 83.5220844802275 15.2048585185244)" fill="#ffffff" fill-rule="evenodd" stroke="none" stroke-width="14.4" stroke-linecap="square" stroke-linejoin="miter" stroke-miterlimit="2.16000008583069" d="M183.625 527.334L188.386 517.984L193.192 508.672L198.042 499.398L202.935 490.161L207.872 480.962L212.851 471.799L217.874 462.672L222.938 453.582L228.043 444.528L233.191 435.509L238.38 426.525L243.609 417.576L248.878 408.661L254.187 399.781L259.535 390.934L264.923 382.121L270.35 373.342L275.815 364.596L281.318 355.881L286.86 347.199L292.438 338.55L298.053 329.932L303.705 321.346L309.393 312.79L315.117 304.265L320.877 295.771L326.671 287.307L332.501 278.872L338.364 270.468L344.262 262.092L350.194 253.745L356.159 245.426L362.156 237.137L368.187 228.874L374.249 220.64L380.344 212.432L386.469 204.253L392.626 196.099L398.814 187.972L405.032 179.87L411.28 171.794L417.558 163.745L423.865 155.719L430.201 147.719L436.565 139.743L442.958 131.791L449.378 123.863L455.826 115.959L462.3 108.078L468.803 100.22L475.33 92.3838L481.884 84.5706L488.463 76.7784L495.068 69.0092L501.697 61.2601L508.351 53.532L515.029 45.825L521.731 38.139L528.456 30.4722L535.204 22.8254L541.976 15.1979L548.768 7.58952L555.583 0L556.837 0.0985503L558.064 0.21815L559.266 0.358417L560.443 0.518872L561.594 0.699133L562.722 0.898817L563.825 1.11745L564.906 1.35464L565.964 1.60991L567 1.88288L568.013 2.17318L569.006 2.4804L569.979 2.80409L570.931 3.14375L571.864 3.49911L572.778 3.86977L573.672 4.25507L574.55 4.65492L575.41 5.06864L576.253 5.49595L577.079 5.93646L577.89 6.3896L578.685 6.85508L579.465 7.33252L580.23 7.82145L580.982 8.32137L581.721 8.83192L582.447 9.3528L583.161 9.88344L583.863 10.4235L584.554 10.9725L585.233 11.5301L585.903 12.0958L586.563 12.6694L587.214 13.2502L587.857 13.8379L588.491 14.4322L589.117 15.0325L589.737 15.6384L590.35 16.2496L590.957 16.8657L591.558 17.4861L592.155 18.1106L592.746 18.7385L593.335 19.3697L593.919 20.0037L594.501 20.64L595.08 21.2781L595.658 21.9179L596.234 22.5586L596.809 23.2001L597.383 23.8418L597.958 24.4833L592.725 33.429L587.481 42.3671L582.224 51.2979L576.954 60.22L571.673 69.1345L566.378 78.0404L561.07 86.9386L555.748 95.8272L550.412 104.707L545.062 113.579L539.698 122.441L534.318 131.293L528.925 140.137L523.515 148.97L518.09 157.792L512.649 166.605L507.191 175.409L501.718 184.201L496.227 192.982L490.72 201.753L485.194 210.513L479.652 219.261L474.091 227.998L468.512 236.723L462.913 245.437L457.297 254.138L451.662 262.828L446.006 271.505L440.331 280.169L434.636 288.82L428.921 297.459L423.185 306.085L417.428 314.697L411.65 323.296L405.85 331.88L400.029 340.452L394.186 349.009L388.32 357.551L382.43 366.08L376.519 374.593L370.584 383.093L364.626 391.577L358.644 400.045L352.637 408.498L346.606 416.935L340.55 425.358L334.47 433.764L328.364 442.154L322.232 450.528L316.075 458.885L309.891 467.226L303.68 475.549L297.443 483.856L291.179 492.145L284.888 500.417L278.568 508.671L272.221 516.908L265.846 525.126L259.441 533.326L253.008 541.508L246.546 549.671L240.054 557.816L233.533 565.943L232.101 565.889L230.69 565.817L229.3 565.728L227.93 565.621L226.579 565.496L225.251 565.352L223.943 565.19L222.656 565.011L221.389 564.813L220.142 564.597L218.917 564.364L217.712 564.111L216.528 563.841L215.364 563.553L214.221 563.248L213.099 562.924L211.997 562.581L210.916 562.222L209.856 561.844L208.816 561.447L207.797 561.033L206.798 560.601L205.82 560.15L204.863 559.682L203.926 559.195L203.01 558.691L202.115 558.169L201.24 557.628L200.386 557.069L199.553 556.492L198.739 555.897L197.947 555.285L197.176 554.653L196.425 554.005L195.695 553.338L194.985 552.653L194.296 551.949L193.627 551.229L192.98 550.489L192.353 549.732L191.746 548.956L191.161 548.163L190.595 547.352L190.051 546.522L189.526 545.676L189.023 544.81L188.541 543.926L188.079 543.024L187.638 542.105L187.217 541.167L186.817 540.211L186.437 539.237L186.078 538.245L185.739 537.236L185.423 536.207L185.125 535.161L184.849 534.097L184.593 533.015L184.359 531.915L184.144 530.796L183.95 529.661L183.777 528.506L183.625 527.334M0 661.992L0.82189 664.066L1.67803 666.092L2.56853 668.067L3.49318 669.994L4.45198 671.872L5.44514 673.7L6.47255 675.48L7.53412 677.211L8.62994 678.893L9.76002 680.525L10.9243 682.108L12.1229 683.642L13.3558 685.128L14.6228 686.564L15.924 687.951L17.2596 689.289L18.6293 690.578L20.0333 691.818L21.4715 693.009L22.944 694.151L24.4507 695.243L25.9916 696.287L27.5667 697.282L29.176 698.228L30.8198 699.124L32.498 699.971L34.2098 700.77L35.9559 701.519L37.7365 702.219L39.5516 702.87L41.4011 703.473L43.284 704.026L45.2015 704.529L47.1533 704.984L49.1396 705.39L51.1604 705.747L53.2146 706.055L55.3033 706.313L57.4265 706.523L59.5831 706.684L61.7751 706.795L64.0006 706.857L66.2606 706.87L68.555 706.835L70.8829 706.75L73.2462 706.617L75.643 706.433L78.0742 706.202L80.5399 705.92L83.039 705.59L85.5726 705.211L88.1407 704.783L90.7432 704.305L93.3801 703.779L96.0501 703.204L98.756 702.579L101.495 701.906L104.268 701.183L107.076 700.411L109.918 699.59L112.794 698.72L115.705 697.802L118.65 696.834L122.939 695.362L127.146 693.851L131.273 692.302L135.318 690.717L139.282 689.097L143.164 687.444L146.965 685.76L150.685 684.049L154.324 682.309L157.88 680.545L161.356 678.758L164.75 676.948L168.064 675.119L171.295 673.272L174.444 671.409L177.513 669.531L180.501 667.642L183.407 665.741L186.23 663.833L188.973 661.916L191.635 659.995L194.215 658.071L196.714 656.145L199.131 654.219L201.466 652.296L203.721 650.376L205.893 648.463L207.984 646.557L209.993 644.66L211.921 642.775L213.768 640.903L215.533 639.047L217.216 637.207L218.819 635.385L220.339 633.584L221.777 631.806L223.135 630.051L224.41 628.323L225.604 626.622L226.717 624.951L227.748 623.311L228.697 621.705L229.565 620.134L230.351 618.6L231.055 617.104L231.678 615.649L232.219 614.237L232.678 612.869L233.056 611.546L233.353 610.272L233.567 609.048L233.699 607.875L233.751 606.756L233.72 605.692L233.607 604.684L233.414 603.736L233.137 602.848L232.78 602.023L232.341 601.263L231.82 600.568L231.217 599.941L230.533 599.386L229.767 598.9L227.795 598.435L225.869 597.983L223.987 597.541L222.15 597.109L220.356 596.685L218.605 596.269L216.894 595.859L215.223 595.453L213.592 595.05L211.999 594.65L210.443 594.251L208.924 593.851L207.44 593.45L205.991 593.047L204.575 592.638L203.191 592.225L201.84 591.804L200.518 591.375L199.227 590.938L197.964 590.49L196.729 590.03L195.521 589.557L194.339 589.07L193.181 588.567L192.048 588.047L190.938 587.51L189.849 586.953L188.781 586.375L187.734 585.776L186.706 585.153L185.696 584.506L184.703 583.834L183.727 583.134L182.766 582.406L181.819 581.648L180.886 580.861L179.965 580.041L179.055 579.187L178.157 578.3L177.267 577.375L176.387 576.415L175.513 575.416L174.647 574.378L173.787 573.297L172.931 572.176L172.079 571.012L171.231 569.801L170.383 568.546L169.537 567.243L168.691 565.892L167.844 564.491L166.995 563.04L166.143 561.535L165.288 559.978L164.428 558.365L163.561 556.697L162.688 554.971L161.808 553.186L160.919 551.343L160.021 549.437L159.112 547.47L158.191 545.438L157.258 543.342L156.87 542.29L156.428 541.286L155.934 540.329L155.39 539.419L154.796 538.556L154.155 537.741L153.467 536.972L152.735 536.25L151.96 535.575L151.143 534.946L150.286 534.364L149.391 533.829L148.458 533.342L147.49 532.899L146.487 532.504L145.452 532.155L144.385 531.852L143.289 531.595L142.165 531.386L141.014 531.221L139.838 531.104L138.639 531.031L137.417 531.005L136.174 531.024L134.913 531.09L133.634 531.201L132.339 531.358L131.029 531.561L129.706 531.809L128.37 532.102L127.026 532.441L125.672 532.826L124.31 533.255L122.944 533.73L121.573 534.25L120.2 534.815L118.825 535.425L117.451 536.081L116.078 536.78L114.709 537.526L113.344 538.315L111.987 539.149L110.636 540.029L109.295 540.952L107.964 541.92L106.647 542.932L105.343 543.99L104.054 545.09L102.781 546.236L101.528 547.426L100.294 548.66L99.0813 549.937L97.891 551.259L96.7256 552.625L95.5865 554.034L94.4737 555.489L93.3897 556.985L92.3362 558.526L91.3144 560.111L90.326 561.739L89.3721 563.411L88.4545 565.125L87.5752 566.884L85.9927 570.205L84.4627 573.504L82.9835 576.781L81.5531 580.033L80.1677 583.259L78.8272 586.455L77.5279 589.622L76.2678 592.757L75.044 595.857L73.8547 598.921L72.6979 601.949L71.5718 604.936L70.4724 607.882L69.3989 610.786L68.3483 613.644L67.3179 616.455L66.3065 619.217L65.3115 621.93L64.3307 624.589L63.3605 627.195L62.3999 629.745L61.4469 632.236L60.4978 634.668L59.5515 637.039L58.6053 639.347L57.6561 641.589L56.7031 643.765L55.7435 645.871L54.7742 647.907L53.7945 649.87L52.7994 651.759L51.79 653.572L50.7614 655.307L49.7128 656.962L48.6402 658.535L47.5437 660.025L46.4185 661.429L45.2646 662.747L44.0782 663.975L42.8573 665.113L41.5991 666.158L40.3027 667.108L38.965 667.962L37.5834 668.718L36.1559 669.374L34.6805 669.928L33.1554 670.379L31.5766 670.723L29.9424 670.962L28.2508 671.09L26.5004 671.107L24.6876 671.012L22.8106 670.802L20.867 670.476L18.8545 670.031L16.7709 669.466L14.6138 668.778L12.381 667.968L10.07 667.031L7.67879 665.967L5.20489 664.774L2.64603 663.45L0 661.992" sodipodi:nodetypes="ccccccccccccccccccccccccccccccccccccccccccccccccccccccccccccccccccccccccccccccccccccccccccccccccccccccccccccccccccccccccccccccccccccccccccccccccccccccccccccccccccccccccccccccccccccccccccccccccccccccccccccccccccccccccccccccccccccccccccccccccccccccccccccccccccccccccccccccccccccccccccccccccccccccccccccccccccccccccccccccccccccccccccccccccccccccccccccccccccccccccccccccccccccccccccccccccccccccccccccccccccccccccccccccccccccccccccccccccccccccccccccccccccccccccccccccccccccccccccccccccccccccccccccccccccccccccccccccccccccccccccccccccccccccccccccccccccccccccccccccc"/>
</svg>
