<?xml version="1.0" standalone="no"?>
<!DOCTYPE svg PUBLIC "-//W3C//DTD SVG 20010904//EN" "http://www.w3.org/TR/2001/REC-SVG-20010904/DTD/svg10.dtd">
<!-- Created using Krita: https://krita.org -->
<svg xmlns="http://www.w3.org/2000/svg" 
    xmlns:xlink="http://www.w3.org/1999/xlink"
    xmlns:krita="http://krita.org/namespaces/svg/krita"
    xmlns:sodipodi="http://sodipodi.sourceforge.net/DTD/sodipodi-0.dtd"
    width="737.28pt"
    height="737.28pt"
    viewBox="0 0 737.28 737.28">
<defs/>
<path id="shape0" transform="matrix(0.999999841054297 0 0 0.999999841054297 19.7495652040809 18.7039017303512)" fill="#ffffff" fill-rule="evenodd" stroke="none" stroke-width="14.4" stroke-linecap="square" stroke-linejoin="miter" stroke-miterlimit="2.16000008583069" d="M314.515 680.146L314.975 679.311L315.375 678.21L315.718 676.852L316.008 675.243L316.246 673.39L316.434 671.302L316.575 668.984L316.674 666.444L316.731 663.69L316.749 660.728L316.73 657.564L316.679 654.208L316.596 650.665L316.484 646.943L316.347 643.049L316.187 638.991L316.006 634.774L315.807 630.407L315.591 625.897L315.365 621.25L315.125 616.475L314.879 611.578L314.628 606.565L314.373 601.445L314.119 596.225L313.867 590.911L313.62 585.511L313.381 580.032L313.152 574.482L312.936 568.867L312.735 563.193L312.551 557.47L312.39 551.703L312.249 545.9L312.135 540.069L312.049 534.215L311.994 528.347L311.972 522.472L311.986 516.595L312.039 510.726L312.134 504.871L312.271 499.037L312.454 493.231L312.687 487.46L312.97 481.732L313.308 476.054L313.703 470.433L314.155 464.876L314.67 459.39L315.249 453.981L315.895 448.659L316.61 443.429L317.398 438.299L318.26 433.275L319.199 428.367L320.217 423.579L321.319 418.92L322.504 414.396L323.777 410.015L325.14 405.783L326.597 401.708L328.147 397.799L329.796 394.06L333.603 395.267L337.575 396.514L341.701 397.797L345.976 399.113L350.393 400.462L354.947 401.839L359.631 403.245L364.435 404.675L369.356 406.128L374.385 407.602L379.517 409.094L384.744 410.603L390.059 412.124L395.456 413.658L400.929 415.201L406.471 416.751L412.074 418.306L417.734 419.865L423.44 421.422L429.188 422.979L434.971 424.532L440.783 426.077L446.617 427.615L452.466 429.142L458.321 430.656L464.18 432.154L470.032 433.636L475.873 435.097L481.694 436.537L487.491 437.951L493.255 439.34L498.98 440.7L504.66 442.029L510.287 443.325L515.854 444.586L521.358 445.809L526.788 446.992L532.139 448.134L537.403 449.23L542.576 450.28L547.649 451.281L552.617 452.232L557.47 453.129L562.206 453.97L566.814 454.754L571.29 455.477L575.627 456.139L579.817 456.735L583.854 457.265L587.73 457.727L591.442 458.116L594.979 458.433L598.336 458.674L601.508 458.836L604.485 458.918L607.263 458.919L609.833 458.835L612.191 458.663L614.328 458.403L616.238 458.051L617.915 457.605L619.351 457.064L620.541 456.425L621.808 455.442L623.127 454.107L624.497 452.43L625.915 450.424L627.377 448.1L628.882 445.468L630.426 442.539L632.007 439.328L633.622 435.843L635.268 432.095L636.943 428.097L638.644 423.861L640.368 419.395L642.112 414.714L643.873 409.828L645.65 404.748L647.439 399.484L649.238 394.05L651.043 388.456L652.853 382.713L654.664 376.832L656.473 370.827L658.279 364.705L660.077 358.481L661.866 352.165L663.643 345.768L665.403 339.301L667.149 332.777L668.872 326.206L670.572 319.6L672.247 312.969L673.893 306.325L675.507 299.681L677.088 293.046L678.63 286.432L680.135 279.851L681.597 273.314L683.015 266.831L684.384 260.416L685.703 254.078L686.97 247.829L688.178 241.681L689.331 235.644L690.421 229.731L691.447 223.952L692.408 218.318L693.298 212.842L694.116 207.534L694.859 202.407L695.525 197.469L696.11 192.735L696.611 188.214L697.028 183.917L697.356 179.858L697.591 176.046L697.735 172.493L697.781 169.21L697.728 166.208L697.572 163.5L697.313 161.096L696.944 159.007L696.465 157.246L695.875 155.823L694.402 153.756L692.08 151.568L688.94 149.266L685.006 146.854L680.311 144.336L674.878 141.719L668.736 139.009L661.916 136.209L654.444 133.326L646.347 130.365L637.656 127.331L628.395 124.23L618.596 121.066L608.285 117.845L597.49 114.574L586.24 111.255L574.562 107.896L562.485 104.501L550.035 101.075L537.243 97.625L524.135 94.1543L510.74 90.6694L497.085 87.1759L483.197 83.6787L469.109 80.1824L454.844 76.6927L440.432 73.2154L425.901 69.7561L411.277 66.3186L396.591 62.9095L381.87 59.5336L367.143 56.1966L352.435 52.9041L337.777 49.66L323.195 46.4709L308.718 43.3415L294.375 40.2775L280.193 37.2836L266.201 34.3656L252.423 31.5282L238.893 28.778L225.636 26.1198L212.678 23.5582L200.051 21.0981L187.781 18.7471L175.896 16.5078L164.425 14.3881L153.394 12.3906L142.834 10.523L132.77 8.78907L123.232 7.19546L114.248 5.74594L105.845 4.4462L98.0516 3.30195L90.8955 2.31885L84.4053 1.50261L78.6082 0.85606L73.5335 0.387739L69.2086 0.10049L65.6602 0L62.9185 0.0929057L61.0102 0.383947L59.9645 0.877864L59.4933 1.4846L58.9368 2.45631L58.2998 3.77975L57.584 5.44447L56.7943 7.43815L55.9345 9.75036L55.0073 12.3688L54.0157 15.283L52.9643 18.4807L51.8552 21.9504L50.6938 25.6809L49.4823 29.6606L48.2252 33.8774L46.9245 38.3217L45.585 42.9803L44.2094 47.8427L42.8016 52.8965L41.3651 58.1315L39.9034 63.5352L38.4199 69.0963L36.9182 74.8033L35.4017 80.646L33.8739 86.6109L32.3385 92.6886L30.7987 98.8659L29.2582 105.131L27.7205 111.476L26.1891 117.885L24.6673 124.349L23.1588 130.856L21.6672 137.394L20.1958 143.953L18.7481 150.52L17.3278 157.084L15.9382 163.634L14.5828 170.158L13.2652 176.645L11.9889 183.083L10.7574 189.461L9.57413 195.768L8.44267 201.991L7.36648 208.12L6.34906 214.143L5.39403 220.048L4.5047 225.824L3.68466 231.46L2.93734 236.945L2.26643 242.266L1.67524 247.412L1.16739 252.372L0.74628 257.134L0.415516 261.687L0.178512 266.019L0.0388687 270.121L0 273.977L0.0654132 277.579L0.238711 280.915L0.523211 283.972L0.922611 286.74L1.44023 289.208L2.07967 291.363L2.84453 293.194L3.73813 294.69L4.33955 295.449L5.05967 296.226L5.89838 297.023L6.85578 297.841L7.93169 298.677L9.12628 299.532L10.4395 300.407L11.8714 301.301L13.4218 302.215L15.0908 303.148L16.8785 304.099L18.7848 305.071L20.8097 306.063L22.9532 307.073L25.2154 308.103L27.5961 309.152L30.0956 310.221L32.7135 311.309L35.4502 312.416L38.3054 313.544L41.2793 314.69L44.3715 315.855L47.5824 317.04L50.9128 318.245L54.3608 319.469L57.9282 320.712L61.6131 321.974L65.4175 323.256L69.3404 324.558L73.3818 325.878L77.5417 327.218L81.821 328.577L86.218 329.957L90.7343 331.355L95.3677 332.772L100.122 334.209L104.993 335.666L109.983 337.142L115.093 338.637L120.32 340.152L125.667 341.686L131.132 343.239L136.716 344.812L142.417 346.404L148.239 348.015L154.177 349.647L160.236 351.297L166.411 352.967L172.707 354.655L179.12 356.365L185.653 358.092L192.304 359.839L199.073 361.606L205.963 363.392L212.968 365.197L220.096 367.022L227.338 368.866L234.702 370.73L242.183 372.613L249.784 374.515L257.502 376.437L265.34 378.379L273.295 380.339L271.535 384.978L269.802 389.745L268.095 394.633L266.413 399.637L264.758 404.751L263.13 409.967L261.527 415.281L259.951 420.687L258.4 426.178L256.878 431.749L255.382 437.393L253.913 443.104L252.47 448.877L251.056 454.705L249.669 460.584L248.308 466.505L246.976 472.464L245.669 478.454L244.392 484.469L243.144 490.504L241.921 496.553L240.727 502.608L239.562 508.666L238.426 514.718L237.317 520.759L236.238 526.784L235.185 532.787L234.163 538.761L233.168 544.7L232.204 550.598L231.269 556.45L230.361 562.249L229.485 567.991L228.637 573.666L227.819 579.271L227.03 584.799L226.272 590.245L225.543 595.602L224.843 600.864L224.175 606.026L223.537 611.081L222.928 616.023L222.35 620.845L221.803 625.545L221.286 630.112L220.801 634.543L220.347 638.831L219.923 642.97L219.532 646.956L219.17 650.779L218.84 654.437L218.542 657.921L218.275 661.225L218.04 664.346L217.837 667.277L217.667 670.009L217.528 672.539L217.421 674.861L217.347 676.966L217.305 678.852L217.295 680.511L217.318 681.937L217.375 683.124L217.517 684.352L217.777 685.531L218.147 686.659L218.626 687.737L219.21 688.765L219.894 689.745L220.677 690.676L221.553 691.559L222.521 692.394L223.576 693.183L224.715 693.925L225.937 694.621L227.234 695.271L228.605 695.876L230.046 696.437L231.554 696.952L233.127 697.424L234.759 697.854L236.447 698.241L238.189 698.585L239.979 698.886L241.817 699.148L243.697 699.368L245.617 699.547L247.573 699.687L249.561 699.788L251.576 699.849L253.62 699.872L255.685 699.857L257.769 699.805L259.867 699.715L261.977 699.589L264.097 699.427L266.22 699.229L268.347 698.995L270.47 698.728L272.588 698.427L274.698 698.091L276.795 697.722L278.877 697.32L280.94 696.887L282.98 696.421L284.993 695.925L286.977 695.397L288.93 694.838L290.845 694.251L292.72 693.633L294.554 692.987L296.338 692.313L298.074 691.609L299.756 690.879L301.382 690.122L302.947 689.339L304.447 688.528L305.882 687.693L307.244 686.832L308.533 685.948L309.745 685.038L310.874 684.105L311.921 683.149L312.878 682.17L313.744 681.169L314.515 680.146M93.6665 91.2041L92.8057 89.4692L92.545 87.9495L92.8636 86.6403L93.7395 85.5359L95.1516 84.6295L97.0818 83.9166L99.5068 83.3905L102.405 83.0454L105.757 82.8757L109.543 82.8757L113.739 83.0397L118.328 83.362L123.286 83.8361L128.592 84.458L134.228 85.2202L140.171 86.117L146.4 87.1437L152.894 88.2936L159.634 89.5611L166.597 90.9405L173.764 92.426L181.112 94.013L188.621 95.6939L196.273 97.4629L204.042 99.3162L211.91 101.246L219.855 103.248L227.858 105.315L235.896 107.443L243.951 109.625L251.999 111.855L260.02 114.128L267.993 116.437L275.899 118.778L283.714 121.144L291.42 123.531L298.994 125.93L306.418 128.338L313.667 130.748L320.723 133.154L327.566 135.551L334.172 137.934L340.52 140.294L346.592 142.629L352.367 144.931L357.822 147.196L362.937 149.416L367.693 151.586L372.066 153.701L376.036 155.755L379.583 157.742L382.685 159.656L385.324 161.491L387.475 163.241L389.121 164.902L390.237 166.467L390.806 167.931L390.805 169.287L390.214 170.528L389.011 171.653L387.174 172.651L384.686 173.519L381.524 174.251C369.369 183.897 90.1629 100.08 93.6665 91.2041M48.7703 209.654L48.5286 207.441L49.1855 205.582L50.7109 204.066L53.0743 202.881L56.2464 202.02L60.1958 201.472L64.8932 201.225L70.3083 201.273L76.4107 201.604L83.171 202.207L90.558 203.074L98.5436 204.194L107.096 205.558L116.183 207.154L125.78 208.974L135.851 211.008L146.371 213.246L157.306 215.677L168.629 218.292L180.305 221.081L192.31 224.033L204.611 227.139L217.177 230.39L229.978 233.775L242.985 237.283L256.169 240.906L269.497 244.634L282.939 248.456L296.467 252.361L310.051 256.342L323.66 260.387L337.262 264.487L350.83 268.631L364.331 272.811L377.739 277.016L391.019 281.234L404.143 285.459L417.082 289.677L429.804 293.882L442.281 298.062L454.481 302.206L466.375 306.306L477.931 310.352L489.12 314.332L499.913 318.239L510.279 322.061L520.188 325.788L529.609 329.412L538.514 332.921L546.87 336.306L554.649 339.557L561.819 342.665L568.354 345.618L574.218 348.407L579.385 351.023L583.824 353.454L587.505 355.692L590.396 357.727L592.469 359.548L593.694 361.146L594.038 362.511L593.476 363.631L591.973 364.5C589.13 373.414 46.9797 220.132 48.7703 209.654" sodipodi:nodetypes="ccccccccccccccccccccccccccccccccccccccccccccccccccccccccccccccccccccccccccccccccccccccccccccccccccccccccccccccccccccccccccccccccccccccccccccccccccccccccccccccccccccccccccccccccccccccccccccccccccccccccccccccccccccccccccccccccccccccccccccccccccccccccccccccccccccccccccccccccccccccccccccccccccccccccccccccccccccccccccccccccccccccccccccccccccccccccccccccccccccccccccccccccccccccccccccccccccccccccccccccccccccccccccccccccccccccccccccccccccccccccccccccccccccccccccccccccccccccccccccccccccccccccccccccccccccccccccccccccccccccccccccccccccccccccccccccccccccccccccccccccccccccccccccccccccccccccccccccccccccccccccccccccccccccccccccccccccccccccccc"/>
</svg>
